<svg xmlns="http://www.w3.org/2000/svg" viewBox="0 0 200 200">
<defs><linearGradient id="g" x1="0" y1="0" x2="1" y2="1"><stop offset="0" stop-color="#FFF1C8"/><stop offset=".45" stop-color="#E4BF6A"/><stop offset="1" stop-color="#8C6A2F"/></linearGradient>
<path id="arcT" d="M40 100 A60 60 0 0 1 160 100"/><path id="arcB" d="M34 100 A66 66 0 0 0 166 100"/></defs>
<polygon fill="url(#g)" points="100.0,4.0 111.5,12.8 124.8,7.3 133.7,18.7 148.0,16.9 153.6,30.2 167.9,32.1 169.8,46.4 183.1,52.0 181.3,66.3 192.7,75.2 187.2,88.5 196.0,100.0 187.2,111.5 192.7,124.8 181.3,133.7 183.1,148.0 169.8,153.6 167.9,167.9 153.6,169.8 148.0,183.1 133.7,181.3 124.8,192.7 111.5,187.2 100.0,196.0 88.5,187.2 75.2,192.7 66.3,181.3 52.0,183.1 46.4,169.8 32.1,167.9 30.2,153.6 16.9,148.0 18.7,133.7 7.3,124.8 12.8,111.5 4.0,100.0 12.8,88.5 7.3,75.2 18.7,66.3 16.9,52.0 30.2,46.4 32.1,32.1 46.4,30.2 52.0,16.9 66.3,18.7 75.2,7.3 88.5,12.8"/>
<circle cx="100" cy="100" r="78" fill="url(#g)" stroke="#8C6A2F" stroke-width="1.2"/>
<circle cx="100" cy="100" r="70" fill="none" stroke="#FFF6DD" stroke-width="1" opacity=".8"/>
<text font-family="Georgia,serif" font-size="12" letter-spacing="2" fill="#5E4415"><textPath href="#arcT" startOffset="50%" text-anchor="middle">CARTHAGE IOOC</textPath></text>
<text x="100" y="92" text-anchor="middle" font-family="Georgia,serif" font-size="17" font-weight="700" fill="#5E4415">DOUBLE</text>
<text x="100" y="113" text-anchor="middle" font-family="Georgia,serif" font-size="17" font-weight="700" fill="#5E4415">GOLD</text>
<text x="100" y="137" text-anchor="middle" font-family="Georgia,serif" font-size="15" fill="#5E4415">2026</text>
<text font-family="Georgia,serif" font-size="9" letter-spacing="2" fill="#5E4415"><textPath href="#arcB" startOffset="50%" text-anchor="middle">TUNISIA</textPath></text>
</svg>
